<svg width="262" height="242" viewBox="0 0 262 242" fill="none" xmlns="http://www.w3.org/2000/svg">
<circle cx="147.798" cy="143.775" r="97.5" fill="#D2FF85"/>
<circle cx="232.798" cy="193.775" r="28.5" fill="#FF85D2"/>
<path d="M18.3591 201.138C0.666532 170.469 -4.12063 134.023 5.05072 99.8192C14.2221 65.6149 36.6007 36.4536 67.2635 18.7504C97.9264 1.04719 134.362 -3.74775 168.554 5.42043C202.747 14.5886 231.895 36.9689 249.588 67.6379L188.313 103.015C179.997 88.6007 166.297 78.0819 150.226 73.7728C134.156 69.4637 117.031 71.7174 102.62 80.0379C88.208 88.3585 77.69 102.064 73.3794 118.141C69.0689 134.217 71.3188 151.346 79.6344 165.761L18.3591 201.138Z" fill="#B285FF"/>
</svg>
