<svg width="224" height="183" viewBox="0 0 224 183" fill="none" xmlns="http://www.w3.org/2000/svg">
<path d="M26.0635 0.622469C14.7138 14.4707 6.86605 30.8485 3.18392 48.3708C-0.498217 65.8931 0.0936062 84.0444 4.90932 101.29C9.72505 118.535 18.623 134.367 30.8507 147.446C43.0784 160.526 58.2761 170.468 75.1585 176.432C92.0408 182.397 110.111 184.208 127.842 181.712C145.572 179.217 162.44 172.488 177.02 162.095C191.6 151.702 203.463 137.951 211.605 122.004C219.747 106.058 223.929 88.3849 223.798 70.4804L210.195 70.5805C210.311 86.3007 206.639 101.818 199.49 115.819C192.341 129.82 181.926 141.893 169.125 151.018C156.323 160.143 141.513 166.051 125.946 168.242C110.378 170.433 94.5125 168.843 79.6897 163.607C64.8669 158.37 51.5233 149.64 40.7874 138.157C30.0514 126.673 22.239 112.772 18.0108 97.6311C13.7826 82.4897 13.2629 66.5528 16.4959 51.1682C19.7288 35.7836 26.6192 21.4038 36.5842 9.24501L26.0635 0.622469Z" fill="#FFD885"/>
<path d="M51.6574 20.0504C43.565 29.9242 37.9695 41.6017 35.3441 54.0952C32.7187 66.5886 33.1407 79.5306 36.5743 91.8265C40.008 104.122 46.3523 115.411 55.0706 124.736C63.789 134.062 74.6251 141.151 86.6623 145.404C98.6995 149.656 111.584 150.948 124.226 149.168C136.867 147.389 148.895 142.591 159.29 135.181C169.686 127.771 178.144 117.966 183.949 106.596C189.755 95.2263 192.737 82.6254 192.643 69.8594L177.451 69.9712C177.527 80.2977 175.115 90.4906 170.419 99.6879C165.723 108.885 158.881 116.816 150.472 122.81C142.063 128.805 132.334 132.685 122.108 134.125C111.882 135.564 101.46 134.52 91.7229 131.08C81.9859 127.64 73.2205 121.905 66.1682 114.362C59.1158 106.818 53.9838 97.6868 51.2063 87.7406C48.4289 77.7943 48.0875 67.3254 50.2112 57.2193C52.3349 47.1133 56.8612 37.6673 63.4071 29.6803L51.6574 20.0504Z" fill="#FFD885"/>
<path d="M75.8764 32.256C70.5323 38.7765 66.8372 46.488 65.1034 54.7384C63.3697 62.9888 63.6484 71.5354 65.9159 79.6554C68.1833 87.7753 72.373 95.2298 78.1304 101.388C83.8878 107.547 91.0437 112.228 98.9928 115.037C106.942 117.845 115.45 118.698 123.799 117.523C132.147 116.347 140.09 113.179 146.955 108.286C153.82 103.392 159.405 96.9175 163.239 89.409C167.073 81.9005 169.042 73.5792 168.98 65.1488L156.941 65.2374C156.989 71.7345 155.471 78.1476 152.517 83.9343C149.562 89.7209 145.257 94.711 139.967 98.4823C134.676 102.254 128.555 104.695 122.121 105.601C115.687 106.507 109.129 105.849 103.003 103.685C96.877 101.521 91.3621 97.9128 86.9249 93.1665C82.4877 88.4203 79.2589 82.6753 77.5113 76.4173C75.7638 70.1594 75.5491 63.5727 76.8852 57.2143C78.2214 50.8558 81.0692 44.9127 85.1877 39.8875L75.8764 32.256Z" fill="#FFD885"/>
</svg>
