<svg xmlns="http://www.w3.org/2000/svg" width="21" height="24" viewBox="0 0 21 24" fill="none">
  <path d="M7.77656 6.71094C5.98125 7.55469 4.64531 9.20937 4.22812 11.1969C4.51406 11.2016 7.15313 11.2109 10.1531 10.4141C9.08906 8.52969 7.94531 6.94063 7.77656 6.71094ZM9 6.28438C9.17813 6.52344 10.3406 8.10781 11.3906 10.0344C13.6687 9.17656 14.6297 7.88281 14.7469 7.71875C13.1719 6.32188 11.0297 5.79219 9 6.28438ZM13.0031 18.4062C12.9094 17.8438 12.5344 15.8844 11.6344 13.55C9.05156 14.4312 7.2375 16.1938 6.56719 17.5625C8.46563 19.0438 10.9406 19.2828 13.0031 18.4062ZM10.6781 11.4031C7.48125 12.3594 4.37813 12.3219 4.09688 12.3125V12.5094C4.09688 14.1547 4.72031 15.6547 5.74219 16.7938C6.78281 15.0172 8.8875 13.1422 11.2031 12.4906C11.0437 12.125 10.8656 11.7641 10.6828 11.4031H10.6781ZM14.0766 17.8203C15.5156 16.85 16.5375 15.3078 16.8234 13.5266C16.6078 13.4562 14.8406 12.9313 12.8344 13.2547C13.6734 15.5563 14.0109 17.4312 14.0766 17.8203ZM12.4453 12.2422C14.5781 11.975 16.6969 12.4016 16.9078 12.4484C16.8938 10.9344 16.3547 9.54688 15.4594 8.45938C15.3234 8.64219 14.25 10.0156 11.8828 10.9859C12.1078 11.4453 12.2719 11.8203 12.4453 12.2422ZM18 2H3C1.34531 2 0 3.34531 0 5V20C0 21.6547 1.34531 23 3 23H18C19.6547 23 21 21.6547 21 20V5C21 3.34531 19.6547 2 18 2ZM10.5 20C8.51088 20 6.60322 19.2098 5.1967 17.8033C3.79018 16.3968 3 14.4891 3 12.5C3 10.5109 3.79018 8.60322 5.1967 7.1967C6.60322 5.79018 8.51088 5 10.5 5C12.4891 5 14.3968 5.79018 15.8033 7.1967C17.2098 8.60322 18 10.5109 18 12.5C18 14.4891 17.2098 16.3968 15.8033 17.8033C14.3968 19.2098 12.4891 20 10.5 20Z" fill="#1B1B1B"/>
</svg>