<svg xmlns="http://www.w3.org/2000/svg" width="24" height="24" viewBox="0 0 24 24" fill="none">
  <path fill-rule="evenodd" clip-rule="evenodd" d="M2 3.75446C2 3.28915 2.18484 2.84289 2.51387 2.51387C2.84289 2.18485 3.28914 2 3.75445 2H21.2436C21.4742 1.99963 21.7026 2.04474 21.9158 2.13275C22.1289 2.22076 22.3226 2.34995 22.4857 2.51291C22.6489 2.67588 22.7783 2.86942 22.8665 3.08247C22.9548 3.29551 23.0001 3.52386 23 3.75446V21.2436C23.0002 21.4743 22.955 21.7027 22.8669 21.9158C22.7788 22.129 22.6495 22.3227 22.4865 22.4858C22.3234 22.6489 22.1298 22.7783 21.9167 22.8665C21.7036 22.9548 21.4752 23.0001 21.2446 23H3.75445C3.52398 23 3.29576 22.9546 3.08283 22.8664C2.86991 22.7781 2.67646 22.6488 2.51353 22.4858C2.3506 22.3228 2.22139 22.1293 2.13328 21.9163C2.04516 21.7033 1.99987 21.4751 2 21.2446V3.75446ZM10.3122 10.0067H13.1558V11.4347C13.5662 10.6138 14.6162 9.875 16.1941 9.875C19.219 9.875 19.9359 11.5101 19.9359 14.5103V20.0676H16.8747V15.1937C16.8747 13.4851 16.4642 12.521 15.4219 12.521C13.9757 12.521 13.3744 13.5605 13.3744 15.1937V20.0676H10.3122V10.0067ZM5.06218 19.9369H8.12436V9.875H5.06218V19.9369ZM8.5625 6.59327C8.56827 6.85546 8.52162 7.11616 8.42527 7.36007C8.32893 7.60399 8.18483 7.8262 8.00145 8.01367C7.81806 8.20114 7.59908 8.35009 7.35734 8.45178C7.11561 8.55347 6.856 8.60585 6.59375 8.60585C6.3315 8.60585 6.07189 8.55347 5.83016 8.45178C5.58842 8.35009 5.36944 8.20114 5.18605 8.01367C5.00266 7.8262 4.85857 7.60399 4.76223 7.36007C4.66588 7.11616 4.61923 6.85546 4.625 6.59327C4.63633 6.07864 4.84873 5.58889 5.21671 5.22893C5.58469 4.86897 6.07899 4.6674 6.59375 4.6674C7.10851 4.6674 7.60281 4.86897 7.97079 5.22893C8.33877 5.58889 8.55117 6.07864 8.5625 6.59327Z" fill="#1B1B1B"/>
</svg>